<svg width="51" height="51" viewBox="0 0 51 51" fill="none" xmlns="http://www.w3.org/2000/svg">
<rect x="0.5" y="0.5" width="50" height="50" rx="12" fill="#496767"/>
<path fill-rule="evenodd" clip-rule="evenodd" d="M19.1667 14H32.1667C33.3633 14 34.3333 14.97 34.3333 16.1667V27C34.3333 31.7865 30.4531 35.6667 25.6667 35.6667C20.8802 35.6667 17 31.7865 17 27V16.1667C17 14.97 17.97 14 19.1667 14ZM28.9167 21.5662C27.9932 21.5662 27.1712 22.1515 26.8692 23.0242C26.8109 23.1926 26.8393 23.379 26.945 23.5225C27.046 23.6675 27.2125 23.7528 27.3892 23.75H30.4442C30.6209 23.7528 30.7874 23.6675 30.8883 23.5225C30.9941 23.379 31.0224 23.1926 30.9642 23.0242C30.6621 22.1515 29.8401 21.5662 28.9167 21.5662ZM20.3692 23.0242C20.6712 22.1515 21.4932 21.5662 22.4167 21.5662C23.3401 21.5662 24.1621 22.1515 24.4642 23.0242C24.5224 23.1926 24.4941 23.379 24.3883 23.5225C24.2874 23.6675 24.1209 23.7528 23.9442 23.75H20.8892C20.7125 23.7528 20.546 23.6675 20.445 23.5225C20.3393 23.379 20.3109 23.1926 20.3692 23.0242ZM20.25 27.6067C20.5602 30.3591 22.8969 32.4341 25.6667 32.4167C28.4241 32.4175 30.742 30.3467 31.0508 27.6067C31.071 27.4536 31.0235 27.2994 30.9208 27.1842C30.8152 27.0681 30.666 27.0014 30.5092 27H20.8242C20.6586 26.9887 20.4976 27.0572 20.3908 27.1842C20.2801 27.295 20.2279 27.4515 20.25 27.6067Z" fill="white"/>
</svg>
