<svg width="51" height="51" viewBox="0 0 51 51" fill="none" xmlns="http://www.w3.org/2000/svg">
<rect x="0.5" y="0.5" width="50" height="50" rx="12" fill="#496767"/>
<path d="M18.5 28.5C17.56 28.5 16.69 28.83 16 29.38C15.08 30.11 14.5 31.24 14.5 32.5C14.5 34.71 16.29 36.5 18.5 36.5C19.51 36.5 20.43 36.12 21.14 35.5C21.97 34.77 22.5 33.7 22.5 32.5C22.5 30.29 20.71 28.5 18.5 28.5ZM19.5 32.75C19.5 33.01 19.36 33.26 19.14 33.39L17.89 34.14C17.77 34.22 17.63 34.25 17.5 34.25C17.25 34.25 17 34.12 16.86 33.89C16.65 33.53 16.76 33.07 17.12 32.86L18.01 32.33V31.25C18 30.84 18.34 30.5 18.75 30.5C19.16 30.5 19.5 30.84 19.5 31.25V32.75Z" fill="white"/>
<path d="M28.35 17.4498V21.2498H26.85V17.4498C26.85 17.1798 26.61 17.0498 26.45 17.0498C26.4 17.0498 26.35 17.0598 26.3 17.0798L18.37 20.0698C17.84 20.2698 17.5 20.7698 17.5 21.3398V22.0098C16.59 22.6898 16 23.7798 16 25.0098V21.3398C16 20.1498 16.73 19.0898 17.84 18.6698L25.78 15.6698C26 15.5898 26.23 15.5498 26.45 15.5498C27.45 15.5498 28.35 16.3598 28.35 17.4498Z" fill="white"/>
<path d="M35.0007 28V29C35.0007 29.27 34.7907 29.49 34.5107 29.5H33.0507C32.5207 29.5 32.0407 29.11 32.0007 28.59C31.9707 28.28 32.0907 27.99 32.2907 27.79C32.4707 27.6 32.7207 27.5 32.9907 27.5H34.5007C34.7907 27.51 35.0007 27.73 35.0007 28Z" fill="white"/>
<path d="M32.98 26.45H34C34.55 26.45 35 26 35 25.45V25.01C35 22.94 33.31 21.25 31.24 21.25H19.76C18.91 21.25 18.13 21.53 17.5 22.01C16.59 22.69 16 23.78 16 25.01V26.79C16 27.17 16.4 27.41 16.76 27.29C17.32 27.1 17.91 27 18.5 27C21.53 27 24 29.47 24 32.5C24 33.22 23.81 34.01 23.51 34.71C23.35 35.07 23.6 35.5 23.99 35.5H31.24C33.31 35.5 35 33.81 35 31.74V31.55C35 31 34.55 30.55 34 30.55H33.13C32.17 30.55 31.25 29.96 31 29.03C30.8 28.27 31.04 27.53 31.54 27.05C31.91 26.67 32.42 26.45 32.98 26.45ZM27.5 26.25H22.5C22.09 26.25 21.75 25.91 21.75 25.5C21.75 25.09 22.09 24.75 22.5 24.75H27.5C27.91 24.75 28.25 25.09 28.25 25.5C28.25 25.91 27.91 26.25 27.5 26.25Z" fill="white"/>
</svg>
